<svg id="Capa_1" data-name="Capa 1" xmlns="http://www.w3.org/2000/svg" viewBox="0 0 345 267"><defs><style>.cls-1{fill:#fff;}</style></defs><title>discord</title><path class="cls-1" d="M215.62,263.56H129.38a29.68,29.68,0,0,1-29.65-29.64v-9.3A29.68,29.68,0,0,1,129.38,195h86.24a29.68,29.68,0,0,1,29.65,29.64v9.3A29.68,29.68,0,0,1,215.62,263.56ZM129.38,211.7a12.94,12.94,0,0,0-12.92,12.92v9.3a12.93,12.93,0,0,0,12.92,12.91h86.24a12.93,12.93,0,0,0,12.92-12.91v-9.3a12.94,12.94,0,0,0-12.92-12.92Z"/><path class="cls-1" d="M237.74,169.05H108.93a8.36,8.36,0,0,1-8.36-8.37V129.74H45.36A8.37,8.37,0,0,1,39.9,115L167,5.47a8.35,8.35,0,0,1,10.92,0L305.1,115a8.37,8.37,0,0,1-5.46,14.7H246.1v30.94A8.36,8.36,0,0,1,237.74,169.05ZM117.3,152.32H229.38V121.37a8.36,8.36,0,0,1,8.36-8.36h39.38L172.5,22.84,67.88,113h41.05a8.36,8.36,0,0,1,8.37,8.36Z"/></svg>