<?xml version="1.0" encoding="utf-8"?>
<!-- Generator: Adobe Illustrator 23.0.2, SVG Export Plug-In . SVG Version: 6.00 Build 0)  -->
<svg version="1.1" id="Capa_1" xmlns="http://www.w3.org/2000/svg" xmlns:xlink="http://www.w3.org/1999/xlink" x="0px" y="0px"
	 viewBox="0 0 230.7 314.7" style="enable-background:new 0 0 230.7 314.7;" xml:space="preserve">
<style type="text/css">
	.st0{fill:#4862AE;}
</style>
<path class="st0" d="M134.9,68.2c-49.2,0-89.1,39.9-89.1,89.1s39.9,89.1,89.1,89.1s89.1-39.9,89.1-89.1S184.1,68.2,134.9,68.2z
	 M123.4,181.2l-24.1,21.1V161L123.4,181.2z M102.6,158.2h63.8l-32.1,26.6L102.6,158.2z M102.5,205.1l24.2-21.1l7.6,6.4l7.7-6.4
	l24.5,21.1H102.5z M169.8,202.3l-24.4-21.1l24.4-20.2V202.3z M171.2,184.5v-26.2c0-1.2-1-2.2-2.2-2.2h-69c-1.2,0-2.2,1-2.2,2.2v24.1
	c-14.4-0.1-26-11.8-26-26.1c0-14.4,11.7-26.1,26.1-26.1c0.5,0,1,0,1.5,0c0-0.4,0-0.7,0-1.1c0-11.3,9.1-20.4,20.4-20.4
	c8,0,14.9,4.6,18.3,11.3c2.8-1.3,6-2,9.3-2c7.9,0,14.8,4.1,18.7,10.2c1.1-0.1,2.3-0.2,3.5-0.2c15.6,0,28.3,12.7,28.3,28.3
	C197.9,171.4,186.1,183.7,171.2,184.5z"/>
</svg>
